<?xml version="1.0" encoding="UTF-8"?>
<svg xmlns="http://www.w3.org/2000/svg" id="Layer_1" data-name="Layer 1" viewBox="0 0 24 24">
  <path d="m23,11.49c.36-.271.694-.573,1-.903v13.413H0V6.5c0-1.379,1.122-2.5,2.5-2.5h8.651c-.066.326-.103.661-.125,1H2.5c-.534,0-1,.282-1.266.703l8.272,8.272c1.323,1.322,3.628,1.322,4.95,0h0s1.43-1.452,1.43-1.452c.351.131.712.244,1.086.321l-1.808,1.839s-.007.005-.01.008c-.849.845-1.974,1.31-3.172,1.31s-2.332-.468-3.182-1.318L1,6.883v16.117h22v-11.51Zm-10-5.99c0-3.032,2.467-5.5,5.5-5.5s5.5,2.468,5.5,5.5-2.467,5.5-5.5,5.5-5.5-2.468-5.5-5.5Zm1,0c0,2.481,2.019,4.5,4.5,4.5s4.5-2.019,4.5-4.5-2.019-4.5-4.5-4.5-4.5,2.019-4.5,4.5Zm6.507,1.301l-1.507-1.508v-2.293h-1v2.707l1.8,1.801.707-.707Z"/>
</svg>
